<svg version="1.1" id="Layer_1" xmlns="http://www.w3.org/2000/svg" xmlns:xlink="http://www.w3.org/1999/xlink" x="0px" y="0px"
	 width="100%" viewBox="0 0 256 256" enable-background="new 0 0 256 256" xml:space="preserve">
<path fill="#020202" opacity="1.000000" stroke="none" 
	d="
M108.000000,1.000000 
	C157.666702,1.000000 207.333405,1.000000 257.000000,1.000000 
	C257.000000,9.437772 257.000000,17.750219 256.678711,26.743622 
	C252.953613,28.939133 248.749344,29.652451 246.288574,32.110901 
	C237.044144,41.346737 228.674530,51.489143 216.855286,58.161179 
	C207.012878,66.590630 197.477005,75.048737 188.062027,83.639359 
	C186.433670,85.125130 185.317703,87.172447 183.729034,89.192429 
	C180.720749,91.998306 177.833160,94.460968 175.212082,97.180496 
	C173.043533,99.430519 171.539368,99.265755 169.033859,97.319565 
	C164.610870,93.883972 162.559814,89.612457 162.713379,84.079155 
	C164.628326,79.747208 166.220016,75.540810 168.359665,69.886322 
	C163.679825,75.284698 160.948074,71.361290 157.685486,69.427063 
	C156.353378,68.637321 154.579376,68.592957 152.637634,68.185379 
	C151.553360,68.301628 150.837891,68.441963 149.726227,68.476715 
	C145.612122,68.600143 141.894241,68.829155 138.253464,69.053413 
	C138.253464,70.297157 138.253464,72.215652 138.191391,74.119202 
	C138.129318,74.104248 138.117584,74.231392 137.739395,74.320793 
	C136.183990,74.536736 135.006760,74.663284 133.827255,74.790070 
	C134.046387,76.365860 134.241638,77.769882 134.224731,79.427063 
	C133.763062,80.042336 133.513535,80.404449 132.941986,80.795792 
	C129.196198,80.886887 130.641022,83.460068 130.186844,85.449554 
	C129.013535,87.880608 128.039139,90.018425 126.681580,92.279633 
	C125.109688,91.287903 123.920952,90.172775 122.806320,88.624969 
	C122.588646,83.128487 122.296867,78.064705 122.151321,72.828758 
	C122.128220,72.118515 121.958885,71.580437 121.825500,70.616730 
	C121.347366,64.843102 120.833290,59.495087 120.514404,53.747360 
	C119.619797,47.494354 118.529984,41.641068 117.440170,35.787777 
	C116.936424,35.714607 116.432686,35.641434 115.928940,35.568264 
	C114.930779,36.699615 113.932610,37.830967 112.668213,39.269150 
	C112.320068,41.718479 111.704567,44.006123 112.241592,45.980247 
	C116.152222,60.355873 114.818192,75.027809 114.858925,89.603745 
	C114.871605,94.139748 113.853981,98.678635 113.308014,103.216209 
	C112.480957,103.270378 111.653893,103.324554 110.826828,103.378723 
	C109.773987,98.871582 108.142601,94.408798 107.792831,89.847740 
	C107.133858,81.254684 107.016464,72.604446 107.039726,63.978966 
	C107.064728,54.707687 107.528641,45.438015 107.763519,36.166691 
	C107.870392,31.948156 107.915390,27.727486 107.938286,23.507511 
	C107.978996,16.005116 107.981506,8.502515 108.000000,1.000000 
z"/>
<path fill="#030303" opacity="1.000000" stroke="none" 
	d="
M1.000000,125.000000 
	C1.000000,83.753784 1.000000,42.507568 1.000000,1.000000 
	C28.687014,1.000000 56.374847,1.000000 84.480042,1.400130 
	C83.947098,8.035522 82.368721,14.250428 82.165871,20.509911 
	C81.588936,38.312210 81.599960,56.133110 81.323067,73.945808 
	C81.213165,81.015610 78.140678,86.599754 72.901711,91.333679 
	C68.498177,95.312714 64.619675,99.866974 60.375530,104.030815 
	C58.416843,105.952438 56.140297,107.550072 53.648529,109.162819 
	C52.526562,109.017815 51.763939,109.004608 50.809044,108.786255 
	C50.077827,108.419510 49.538887,108.257919 48.990067,107.712769 
	C49.320465,106.143890 49.660736,104.958565 50.365036,103.704437 
	C52.133606,103.012169 53.980087,102.761131 54.870533,101.704453 
	C60.400089,95.142677 65.752518,88.429649 71.072670,81.694893 
	C72.264465,80.186203 73.798920,78.461723 73.973312,76.716454 
	C74.945793,66.984062 75.897133,57.224968 76.184326,47.455265 
	C76.502037,36.647587 76.096138,25.818642 76.286583,14.826818 
	C77.530342,13.321111 78.492897,11.987541 79.455452,10.653972 
	C79.022118,10.264760 78.588783,9.875548 78.155449,9.486337 
	C76.683784,11.054011 75.212112,12.621686 73.548676,14.511239 
	C72.389008,17.449352 70.843513,20.002640 70.550377,22.692410 
	C69.055901,36.405724 66.987015,50.147739 66.886368,63.892651 
	C66.806389,74.815750 61.976902,82.469292 54.993927,89.656563 
	C53.950077,90.730957 52.934456,91.832771 51.546432,92.918762 
	C50.671223,94.081116 50.155361,95.246597 49.509888,96.706467 
	C49.086967,97.573196 48.793663,98.145561 48.184845,98.888130 
	C46.907955,103.456703 45.946583,107.855057 44.931301,112.500069 
	C47.357605,112.632401 48.785549,112.710289 50.319267,113.194244 
	C49.671791,116.124397 48.918537,118.648468 47.770760,121.157921 
	C45.383945,120.232796 43.391655,119.322289 41.302322,118.367439 
	C40.389530,126.325539 38.359730,133.859634 33.473091,140.421600 
	C32.842094,141.268936 33.135910,142.804977 32.610420,144.064880 
	C29.441532,142.358566 25.887564,141.198669 24.028976,138.751282 
	C18.112043,130.959839 8.850959,129.252777 1.000000,125.000000 
z"/>
<path fill="#101010" opacity="1.000000" stroke="none" 
	d="
M257.000000,35.000000 
	C257.000000,37.370556 257.000000,39.741116 256.690887,42.683334 
	C247.579391,51.372154 238.834579,59.552868 229.962082,67.592667 
	C213.701584,82.327080 197.322769,96.931122 181.087906,111.693558 
	C176.320801,116.028313 176.499619,117.218895 181.408783,122.066841 
	C187.838867,117.709000 194.288315,113.369286 200.704529,108.981033 
	C207.430374,104.381065 214.056183,99.629112 220.894974,95.205276 
	C222.129227,94.406860 224.181702,94.873367 225.856430,94.755882 
	C225.834274,96.720329 226.527267,99.139679 225.631271,100.548271 
	C224.080917,102.985558 221.761337,105.096230 219.380325,106.810387 
	C213.451935,111.078392 207.326630,115.075119 201.242462,119.123749 
	C197.520172,121.600685 193.992569,124.714111 189.890854,126.178253 
	C185.949661,127.585091 185.995331,129.724747 187.599548,132.061035 
	C194.892731,142.682297 198.720154,154.642044 201.662231,167.250458 
	C201.690063,168.372757 201.821075,169.194641 201.855453,170.467392 
	C201.753387,172.908661 201.731903,174.899139 201.745636,176.889404 
	C201.784866,182.577744 202.884628,183.505554 208.556931,182.872803 
	C220.489853,181.541656 232.351746,181.490067 244.192688,185.319611 
	C246.694077,189.367874 246.026596,190.832870 241.460892,190.857346 
	C233.649567,190.899200 225.834305,190.440002 218.025772,190.550354 
	C216.558014,190.571106 213.974167,192.124786 213.836090,193.215485 
	C212.522095,203.596176 211.695877,214.037308 210.571259,224.443954 
	C210.144669,228.391510 212.025162,230.012665 215.516846,231.217941 
	C225.259827,234.581055 234.843063,238.405960 244.577637,241.795029 
	C248.602524,243.196274 252.852432,243.951157 257.000000,245.000000 
	C257.000000,247.700012 257.000000,250.400024 256.627167,253.497665 
	C248.572678,250.780487 240.989365,247.389938 233.188934,244.608231 
	C216.970795,238.824692 200.626266,233.396469 184.358627,227.750336 
	C179.510849,226.067780 174.771957,224.071823 169.926514,222.381912 
	C168.569519,221.908646 167.010651,222.014252 165.544388,221.854324 
	C166.201874,223.521072 166.380402,225.890213 167.605026,226.725266 
	C171.567871,229.427460 175.878983,231.633286 180.122925,233.905167 
	C185.521698,236.795303 188.907379,241.270844 190.513504,247.070557 
	C189.121780,247.458298 188.052673,247.748367 186.632233,247.935699 
	C185.501862,247.612183 184.592422,247.579376 183.963043,247.142838 
	C171.692703,238.631653 159.447571,230.083984 147.223587,221.506287 
	C146.146774,220.750687 144.644424,219.870132 144.409683,218.810577 
	C144.019638,217.050064 143.848846,214.539505 144.821884,213.406952 
	C145.561081,212.546616 148.457169,212.826721 149.963196,213.526077 
	C151.680313,214.323471 152.850983,216.231430 154.380524,217.511688 
	C158.454803,220.921997 161.374954,220.057236 162.646439,215.005844 
	C163.823624,210.329056 164.770889,205.594940 165.887009,200.902145 
	C168.518768,189.836670 168.315613,189.641479 156.855286,191.127731 
	C155.372696,191.320007 152.579926,191.044510 152.473068,190.542892 
	C152.008942,188.363785 151.810806,185.831390 152.565338,183.821304 
	C152.914185,182.892014 155.665604,182.516006 157.332443,182.503174 
	C160.715836,182.477142 164.102432,182.868942 167.173141,183.068115 
	C167.654327,181.851456 167.873657,181.548508 167.881775,181.239990 
	C168.180069,169.901581 162.931458,159.974060 159.705276,149.542542 
	C158.800125,146.615799 156.690704,147.614685 154.974197,149.007675 
	C151.624481,151.726059 148.325150,154.506546 144.703918,157.076416 
	C138.349518,151.542953 138.390106,150.595886 145.129013,146.144775 
	C146.921127,144.961075 148.819229,143.898407 150.772095,143.006699 
	C153.812103,141.618591 154.042175,139.862976 151.575912,137.810715 
	C143.817001,131.354294 136.129822,124.798470 128.126953,118.656281 
	C125.679184,116.777626 124.745193,115.066063 125.960854,112.453476 
	C130.228806,103.281273 134.498138,94.105675 139.014526,85.054909 
	C141.066605,80.942566 143.698822,77.119720 146.452286,73.134583 
	C147.863724,73.125435 148.890778,73.147278 150.096161,73.449768 
	C152.367523,75.621956 154.544891,77.431381 156.508850,79.448570 
	C157.218948,80.177917 158.015564,81.680901 157.710999,82.341034 
	C157.243347,83.354645 155.959457,84.272636 154.833252,84.620728 
	C153.753754,84.954376 152.433807,84.510132 150.576569,84.353546 
	C151.567520,87.599564 151.596741,91.029175 153.326157,92.757408 
	C159.379669,98.806786 166.019608,104.269341 172.815353,110.290138 
	C176.371719,106.425110 179.688705,102.260384 183.563599,98.703438 
	C203.014008,80.848999 222.519287,63.051430 242.224442,45.479622 
	C246.703186,41.485767 252.051788,38.467381 257.000000,35.000000 
M197.545731,196.828156 
	C196.732071,194.751694 196.036484,190.939102 195.086029,190.874451 
	C187.732010,190.374374 180.328735,190.598770 173.507660,190.598770 
	C172.152954,197.292618 170.885254,203.577972 169.607529,209.861313 
	C168.923248,213.226410 170.875565,214.701248 173.656128,215.696411 
	C178.190475,217.319244 182.862198,218.681229 187.169022,220.782394 
	C191.539154,222.914474 193.693253,221.012543 194.468475,217.264313 
	C195.802338,210.815063 196.556717,204.246002 197.545731,196.828156 
M203.158234,225.237717 
	C203.678635,222.269897 204.402298,219.320984 204.680740,216.330643 
	C205.466339,207.893417 206.069138,199.439163 206.717728,191.320267 
	C202.451065,189.972702 201.967224,191.594208 201.880478,194.499207 
	C201.611176,203.516342 203.546463,212.738831 199.020447,221.407806 
	C197.790771,223.763123 198.900543,226.081436 203.158234,225.237717 
z"/>
<path fill="#040404" opacity="1.000000" stroke="none" 
	d="
M257.000000,57.000000 
	C257.000000,117.020897 257.000000,177.041794 256.647888,237.691422 
	C247.312912,234.849899 238.454895,230.996918 229.312759,228.014999 
	C219.816544,224.917618 216.044769,215.896942 221.198959,207.001709 
	C221.493607,206.493195 221.948547,205.737534 221.772797,205.347382 
	C219.084549,199.379837 223.817291,199.120544 227.365662,198.119263 
	C232.464478,196.680420 237.685120,195.641129 242.719299,194.015045 
	C247.149506,192.584061 248.504196,189.658081 247.502365,184.686050 
	C246.553116,179.974960 243.496216,179.150970 239.750458,177.931305 
	C238.524048,177.292267 237.531479,176.877640 236.415771,176.239517 
	C235.525040,175.993408 234.757462,175.970779 233.535385,175.863937 
	C228.376862,175.584259 223.672836,175.388809 218.777451,174.943344 
	C217.992615,174.715240 217.399170,174.737152 216.474106,174.582275 
	C213.978073,172.308487 211.813660,170.211487 209.773651,167.719757 
	C207.592438,159.604996 205.480484,151.818985 202.884598,144.197815 
	C201.865280,141.205261 199.762924,138.581619 198.082855,135.460678 
	C197.837997,133.597427 197.664062,132.063461 197.812958,130.392334 
	C201.801102,127.101852 205.527924,124.123726 210.903656,126.086037 
	C211.347458,124.223572 211.723907,122.643723 212.378540,120.903351 
	C213.731400,120.040642 214.806061,119.338448 216.282608,118.698166 
	C217.727020,118.901482 218.769562,119.042892 219.997406,119.209183 
	C220.296219,119.310219 220.401428,119.412270 220.526505,119.452492 
	C220.597824,119.475433 220.701569,119.397499 220.790710,119.364983 
	C220.435318,119.328499 220.079910,119.292015 219.763123,118.822662 
	C219.674881,117.531174 219.548050,116.672562 219.659058,115.557060 
	C221.982544,113.434380 223.802536,111.048599 226.212402,109.817566 
	C230.442688,107.656639 232.445358,104.674652 232.078491,99.779869 
	C232.212280,98.713287 232.162018,97.845131 232.212662,96.609703 
	C231.254807,95.029022 230.196060,93.815613 228.962921,92.343231 
	C227.301865,91.333351 225.815216,90.582428 224.154297,89.505600 
	C223.499313,88.095795 223.018585,87.011894 222.751007,85.655144 
	C224.341431,83.324669 225.718689,81.267052 227.433502,79.183716 
	C228.657669,78.513145 229.544281,77.868279 230.614044,77.232452 
	C230.797226,77.241493 230.984161,76.925911 231.342239,76.956612 
	C237.881790,74.452164 242.166443,69.926651 245.473389,63.977966 
	C246.087036,63.205555 246.444138,62.561195 247.061615,61.832680 
	C247.530289,61.455658 247.738602,61.162785 248.300171,60.842773 
	C251.435638,59.543758 254.217819,58.271881 257.000000,57.000000 
z"/>
<path fill="#EDEDED" opacity="1.000000" stroke="none" 
	d="
M145.004974,157.261337 
	C148.325150,154.506546 151.624481,151.726059 154.974197,149.007675 
	C156.690704,147.614685 158.800125,146.615799 159.705276,149.542542 
	C162.931458,159.974060 168.180069,169.901581 167.881775,181.239990 
	C167.873657,181.548508 167.654327,181.851456 167.173141,183.068115 
	C164.102432,182.868942 160.715836,182.477142 157.332443,182.503174 
	C155.665604,182.516006 152.914185,182.892014 152.565338,183.821304 
	C151.810806,185.831390 152.008942,188.363785 152.473068,190.542892 
	C152.579926,191.044510 155.372696,191.320007 156.855286,191.127731 
	C168.315613,189.641479 168.518768,189.836670 165.887009,200.902145 
	C164.770889,205.594940 163.823624,210.329056 162.646439,215.005844 
	C161.374954,220.057236 158.454803,220.921997 154.380524,217.511688 
	C152.850983,216.231430 151.680313,214.323471 149.963196,213.526077 
	C148.457169,212.826721 145.561081,212.546616 144.821884,213.406952 
	C143.848846,214.539505 144.019638,217.050064 144.409683,218.810577 
	C144.644424,219.870132 146.146774,220.750687 147.223587,221.506287 
	C159.447571,230.083984 171.692703,238.631653 183.963043,247.142838 
	C184.592422,247.579376 185.501862,247.612183 186.665527,248.386536 
	C187.209702,249.829926 187.369247,250.719727 187.372986,251.781647 
	C186.969040,252.161438 186.683228,252.267426 185.990540,252.103424 
	C180.754074,250.284424 175.886780,248.633759 170.722977,246.846771 
	C168.476913,245.365417 166.527344,244.020401 164.426758,242.340927 
	C160.019775,239.897995 155.599762,238.060287 151.552231,235.607834 
	C147.165314,232.949753 145.724426,232.913757 143.428101,237.434586 
	C142.178406,239.894882 141.684738,242.730225 140.721283,245.349045 
	C140.303467,246.484756 139.509003,247.475830 138.976227,248.576477 
	C137.623520,251.371109 136.322006,254.190521 135.000000,257.000000 
	C131.969406,257.000000 128.938812,257.000000 125.314041,256.660034 
	C131.394623,248.279587 134.436310,238.734360 136.597107,228.701401 
	C139.344818,215.943237 144.441223,203.511765 140.236252,190.048721 
	C138.419479,184.231918 138.787979,177.145752 135.519882,172.493454 
	C129.074417,163.317917 119.937668,156.523590 108.847404,153.340897 
	C106.506340,152.669067 102.933037,153.014404 101.088516,154.417435 
	C88.525856,163.973129 76.176056,173.818115 63.976521,183.836395 
	C59.914593,187.172073 60.459785,189.563171 65.282768,192.060364 
	C70.153069,194.582092 75.223877,196.720764 80.057602,199.306290 
	C81.426682,200.038589 82.273270,201.747711 83.359482,203.008850 
	C80.307320,204.970398 77.003868,208.905243 74.246201,208.554077 
	C61.880974,206.979446 50.966885,194.933487 50.001888,182.546875 
	C48.571651,164.188477 49.700546,146.134521 57.340797,128.925781 
	C58.624062,126.035393 58.608910,122.481339 58.780472,119.212250 
	C58.917061,116.609665 57.683475,115.354836 55.060120,116.789078 
	C54.696640,114.020485 54.352253,111.657547 54.007866,109.294609 
	C56.140297,107.550072 58.416843,105.952438 60.375530,104.030815 
	C64.619675,99.866974 68.498177,95.312714 72.901711,91.333679 
	C78.140678,86.599754 81.213165,81.015610 81.323067,73.945808 
	C81.599960,56.133110 81.588936,38.312210 82.165871,20.509911 
	C82.368721,14.250428 83.947098,8.035522 84.948700,1.400130 
	C87.041664,1.000000 89.083336,1.000000 91.567513,1.468634 
	C91.985558,32.516628 92.732788,63.117191 89.621422,93.614372 
	C88.971100,99.988800 89.355202,106.585999 84.779160,112.052071 
	C83.400955,113.698334 83.085663,116.234436 82.283447,118.362907 
	C84.599174,119.170135 86.863091,120.322380 89.246292,120.680328 
	C91.321045,120.991959 93.527290,120.320709 95.681274,120.240143 
	C98.225304,120.144981 100.775612,120.217812 104.970169,120.217812 
	C101.813141,124.283234 100.139832,127.843933 97.338646,129.725601 
	C92.795280,132.777557 88.550491,137.871460 81.863770,134.702576 
	C82.910667,133.219009 83.943993,132.083740 85.280823,130.893494 
	C85.390709,129.556900 85.197090,128.275284 84.943314,126.654388 
	C80.764656,123.177986 76.646164,120.040848 72.084969,116.598740 
	C72.079079,113.868034 72.515892,111.442307 73.241257,108.811668 
	C73.771996,108.205666 74.014191,107.804558 74.482719,107.510681 
	C74.806725,107.753334 74.904381,107.888756 75.128799,108.297195 
	C76.178558,108.474411 77.101547,108.378616 78.212364,107.959518 
	C81.307938,103.599388 81.413490,99.317017 79.759285,93.826790 
	C76.276138,96.989517 73.440643,99.564163 71.271812,101.533478 
	C72.462563,103.926064 73.227333,105.462730 73.627060,106.993546 
	C72.531990,106.982483 71.801964,106.977280 70.696762,106.870628 
	C67.770767,105.821106 64.978218,104.739960 63.594055,108.161476 
	C62.785805,110.159409 62.868599,112.517792 62.550507,114.714020 
	C64.676857,114.974182 66.799995,115.265862 68.930710,115.483223 
	C70.309280,115.623856 72.546120,113.384064 72.313431,117.000885 
	C70.585175,117.859146 69.199120,118.600586 67.487167,119.544495 
	C63.038410,122.681496 65.595581,125.951599 67.137604,129.268692 
	C65.485489,129.581406 64.244514,129.816299 62.697144,129.993484 
	C62.466160,130.884872 62.541569,131.833954 62.608513,133.132889 
	C61.208931,141.113968 59.625668,148.716644 58.485653,156.385208 
	C57.520969,162.874374 57.069401,169.439819 56.371563,176.312561 
	C57.362720,177.905563 58.373066,179.157486 59.605930,180.685135 
	C61.986691,177.972839 64.122734,175.539352 66.578995,173.026001 
	C73.843010,167.012451 80.894096,161.196899 87.652481,155.059036 
	C89.270325,153.589737 89.913612,151.047363 91.389809,149.005707 
	C94.350456,149.245010 96.942741,149.763367 99.497139,149.617645 
	C101.498817,149.503418 103.504036,148.696198 105.411804,147.951324 
	C106.724266,147.438858 107.872673,146.506226 109.452187,145.841537 
	C112.797295,147.549820 115.784630,149.177948 118.907257,151.085464 
	C121.782242,152.828705 124.521927,154.292557 127.528465,155.893295 
	C128.487350,156.431046 129.179367,156.831909 129.903671,157.566101 
	C132.372269,160.689835 134.808578,163.480240 137.434967,166.564056 
	C139.426392,168.220810 141.227707,169.584152 142.994400,171.345291 
	C143.648407,174.768097 144.080536,177.891602 145.181290,180.758392 
	C145.513596,181.623856 148.026947,182.490753 148.952545,182.068024 
	C150.007278,181.586304 150.403793,179.663437 151.406097,178.192749 
	C162.607880,175.130402 157.515457,166.950363 157.544464,159.850281 
	C156.113388,160.117264 154.780884,160.365845 153.024445,160.406448 
	C150.734619,160.134720 148.868774,160.070938 146.811462,159.762146 
	C146.026199,159.396347 145.432419,159.275558 144.812592,159.177856 
	C144.786560,159.200912 144.724625,159.232529 144.796249,158.907806 
	C144.913574,158.142502 144.959274,157.701920 145.004974,157.261337 
M151.793808,198.078171 
	C150.686127,199.307236 148.638199,200.592667 148.707642,201.751160 
	C148.795380,203.214645 150.443649,205.509308 151.720718,205.734711 
	C153.203720,205.996490 155.390564,204.768143 156.590622,203.527557 
	C158.232330,201.830399 159.231888,199.512085 160.506699,197.460037 
	C160.226700,196.892578 159.946686,196.325134 159.666687,195.757675 
	C157.266266,196.417068 154.865829,197.076477 151.793808,198.078171 
z"/>
<path fill="#0C0C0C" opacity="1.000000" stroke="none" 
	d="
M55.079212,117.194740 
	C57.683475,115.354836 58.917061,116.609665 58.780472,119.212250 
	C58.608910,122.481339 58.624062,126.035393 57.340797,128.925781 
	C49.700546,146.134521 48.571651,164.188477 50.001888,182.546875 
	C50.966885,194.933487 61.880974,206.979446 74.246201,208.554077 
	C77.003868,208.905243 80.307320,204.970398 83.359482,203.008850 
	C82.273270,201.747711 81.426682,200.038589 80.057602,199.306290 
	C75.223877,196.720764 70.153069,194.582092 65.282768,192.060364 
	C60.459785,189.563171 59.914593,187.172073 63.976521,183.836395 
	C76.176056,173.818115 88.525856,163.973129 101.088516,154.417435 
	C102.933037,153.014404 106.506340,152.669067 108.847404,153.340897 
	C119.937668,156.523590 129.074417,163.317917 135.519882,172.493454 
	C138.787979,177.145752 138.419479,184.231918 140.236252,190.048721 
	C144.441223,203.511765 139.344818,215.943237 136.597107,228.701401 
	C134.436310,238.734360 131.394623,248.279587 124.859924,256.660034 
	C123.285645,257.000000 121.571281,257.000000 119.525177,256.615417 
	C119.555550,254.660400 119.689636,252.992249 120.314552,251.534500 
	C127.706680,234.291016 133.447495,216.661804 131.648651,197.558609 
	C131.126358,192.012039 130.953903,185.299179 127.802879,181.396179 
	C122.942841,175.376297 115.703773,171.250214 109.332077,166.511429 
	C108.530716,165.915451 106.600708,166.020355 105.660141,166.581909 
	C102.876541,168.243820 100.326607,170.297119 96.953499,172.723801 
	C105.415413,177.764038 113.101501,182.342163 121.249901,187.195648 
	C119.532875,189.036575 118.663437,189.968765 117.457153,190.957397 
	C113.320885,193.670883 109.291679,196.056473 105.767937,199.039230 
	C97.406128,206.117218 89.384148,213.598236 80.978180,220.621140 
	C79.345543,221.985153 76.251923,223.075851 74.412140,222.485458 
	C58.224224,217.290726 46.287762,207.238464 40.299881,190.535690 
	C40.454208,181.119263 40.193588,172.140030 40.565720,163.187119 
	C41.150269,149.123718 43.533325,135.529037 52.400837,123.860374 
	C53.798031,122.021812 54.211113,119.435379 55.079212,117.194740 
M86.270721,188.768646 
	C91.311584,193.917953 91.701584,193.887726 96.830650,187.117188 
	C94.364677,185.658142 92.094330,183.784363 89.514351,183.128387 
	C88.789276,182.944031 87.154701,186.336838 86.270721,188.768646 
z"/>
<path fill="#E8E8E8" opacity="1.000000" stroke="none" 
	d="
M144.703918,157.076416 
	C144.959274,157.701920 144.913574,158.142502 144.475189,158.869110 
	C143.439926,159.035721 142.797348,158.916290 141.874023,158.553070 
	C139.410324,157.841873 137.227371,157.374481 134.854340,156.750732 
	C134.467239,156.323578 134.223511,156.104828 134.124603,155.598206 
	C134.617798,153.489792 134.919449,151.721313 135.544235,149.856583 
	C136.888306,148.286484 138.091736,146.904404 138.889404,145.318253 
	C140.242966,142.626678 141.638077,139.756866 137.623245,137.463196 
	C135.967300,129.408051 128.682556,129.050644 123.401596,127.694412 
	C120.785233,127.022507 116.797386,131.691010 113.120407,134.012039 
	C111.118790,136.007431 108.978455,137.718872 107.909676,139.944824 
	C107.306992,141.200043 108.469307,143.302704 108.997101,145.174484 
	C109.157639,145.325348 109.094406,145.761398 109.094406,145.761398 
	C107.872673,146.506226 106.724266,147.438858 105.411804,147.951324 
	C103.504036,148.696198 101.498817,149.503418 99.497139,149.617645 
	C96.942741,149.763367 94.350456,149.245010 91.037735,148.873352 
	C89.897293,148.436874 89.493622,148.139923 89.067207,147.540222 
	C87.288612,146.217133 85.532753,145.196793 83.847229,144.121643 
	C83.917549,144.066818 83.817879,144.214691 83.886147,143.827652 
	C83.964340,142.917328 83.974274,142.394043 84.419357,141.782776 
	C87.172493,141.710831 89.671593,142.306381 91.778732,141.647812 
	C104.415665,137.698242 112.079926,128.236115 117.557289,116.887062 
	C119.703606,112.439903 116.939461,109.318695 112.036209,109.662308 
	C108.895882,109.882378 105.764503,110.228928 102.628403,110.510788 
	C98.719513,110.862091 97.847832,109.569733 98.854561,105.550117 
	C100.195465,100.196289 101.152573,94.565857 101.070381,89.072266 
	C100.876961,76.145439 99.714661,63.235214 99.414658,50.307358 
	C99.033394,33.877213 99.116890,17.436281 99.000000,1.000000 
	C101.700012,1.000000 104.400032,1.000000 107.550018,1.000000 
	C107.981506,8.502515 107.978996,16.005116 107.938286,23.507511 
	C107.915390,27.727486 107.870392,31.948156 107.763519,36.166691 
	C107.528641,45.438015 107.064728,54.707687 107.039726,63.978966 
	C107.016464,72.604446 107.133858,81.254684 107.792831,89.847740 
	C108.142601,94.408798 109.773987,98.871582 110.826828,103.378723 
	C111.653893,103.324554 112.480957,103.270378 113.308014,103.216209 
	C113.853981,98.678635 114.871605,94.139748 114.858925,89.603745 
	C114.818192,75.027809 116.152222,60.355873 112.241592,45.980247 
	C111.704567,44.006123 112.320068,41.718479 113.054085,39.304298 
	C115.005966,40.475906 116.856926,41.713062 117.489983,43.405716 
	C118.780472,46.856236 119.414650,50.552216 120.319214,54.147072 
	C120.833290,59.495087 121.347366,64.843102 121.617813,70.761795 
	C121.584480,71.888626 121.794785,72.444771 122.005081,73.000916 
	C122.296867,78.064705 122.588646,83.128487 122.541237,88.867554 
	C121.083084,93.519974 119.964119,97.497108 118.604271,102.330399 
	C125.188438,100.946663 124.686058,95.414703 127.064743,92.156242 
	C128.039139,90.018425 129.013535,87.880608 130.489380,85.387405 
	C131.748550,83.610191 132.506287,82.188377 133.264023,80.766563 
	C133.513535,80.404449 133.763062,80.042336 134.533722,79.357422 
	C136.075790,77.433556 137.096680,75.832474 138.117584,74.231392 
	C138.117584,74.231392 138.129318,74.104248 138.553406,74.079956 
	C141.282166,73.260109 143.586838,72.464546 145.936707,72.042999 
	C146.010559,72.666534 146.039215,72.916046 146.067886,73.165565 
	C143.698822,77.119720 141.066605,80.942566 139.014526,85.054909 
	C134.498138,94.105675 130.228806,103.281273 125.960854,112.453476 
	C124.745193,115.066063 125.679184,116.777626 128.126953,118.656281 
	C136.129822,124.798470 143.817001,131.354294 151.575912,137.810715 
	C154.042175,139.862976 153.812103,141.618591 150.772095,143.006699 
	C148.819229,143.898407 146.921127,144.961075 145.129013,146.144775 
	C138.390106,150.595886 138.349518,151.542953 144.703918,157.076416 
z"/>
<path fill="#090909" opacity="1.000000" stroke="none" 
	d="
M1.000000,158.000000 
	C1.000000,155.629440 1.000000,153.258896 1.275189,150.126373 
	C5.232673,150.888000 8.881855,152.501083 12.616531,153.883163 
	C13.807583,154.323944 15.225624,154.151352 16.539806,154.259399 
	C16.233482,152.765533 16.425930,150.459061 15.537425,149.913696 
	C10.841600,147.031433 5.873613,144.592606 1.000000,142.000000 
	C1.000000,138.969406 1.000000,135.938812 1.355337,132.451172 
	C12.466968,139.221344 23.285364,146.358810 33.940529,153.732178 
	C37.012283,155.857834 39.750347,158.622330 36.315620,162.889313 
	C33.044128,161.271210 30.009705,159.806854 27.272175,157.913269 
	C22.984961,154.947739 19.746647,155.515930 18.648493,160.530731 
	C16.968369,168.203156 16.123510,176.058884 14.959152,183.842026 
	C14.923742,184.078735 15.278311,184.373795 15.795767,185.176102 
	C18.411451,185.176102 21.387741,184.965439 24.316027,185.249542 
	C26.295319,185.441605 29.702473,186.077454 29.851418,186.957932 
	C30.210566,189.081009 29.031796,191.464233 28.096663,193.698639 
	C24.934752,193.336609 22.108770,193.215942 19.373802,192.653046 
	C15.493720,191.854477 14.097958,193.050369 13.891811,197.154144 
	C13.313482,208.667068 19.022839,218.100311 23.413313,227.995621 
	C23.505877,228.204239 23.987989,228.240021 24.749872,228.535278 
	C26.383095,227.027405 28.003519,225.119720 30.005898,223.785095 
	C32.607986,222.050735 35.513752,220.772018 38.433620,219.593658 
	C43.742550,223.974976 43.752869,224.937668 38.420246,228.506836 
	C36.355152,229.889038 34.241798,231.277664 31.976868,232.265396 
	C28.041649,233.981567 28.280497,236.226791 31.061422,238.587357 
	C37.606022,244.142654 44.305134,249.515686 50.896858,255.016235 
	C51.438919,255.468567 51.640308,256.329132 52.000000,257.000000 
	C35.060688,257.000000 18.121378,257.000000 1.000000,257.000000 
	C1.000000,233.312744 1.000000,209.625031 1.417447,185.292068 
	C2.652307,184.753433 3.469532,184.861526 4.287165,184.966431 
	C9.973381,185.695969 10.488331,185.139267 10.158738,179.354935 
	C9.980561,176.227921 10.446581,173.027466 9.961383,169.964798 
	C9.459488,166.796768 14.830125,163.911743 10.734752,161.112823 
	C8.144396,159.342499 4.606977,158.956589 1.490572,157.961517 
	C1.345892,157.915329 1.164364,157.984543 1.000000,158.000000 
z"/>
<path fill="#F2F2F2" opacity="1.000000" stroke="none" 
	d="
M197.490143,130.529495 
	C197.664062,132.063461 197.837997,133.597427 197.995056,135.872284 
	C198.005692,137.274719 197.865219,137.999084 198.085693,138.588425 
	C201.754257,148.394989 205.467026,158.185013 209.187164,167.972198 
	C209.222366,168.064804 209.490082,168.069016 209.649246,168.114487 
	C211.813660,170.211487 213.978073,172.308487 216.536194,174.833374 
	C217.609528,175.238632 218.289169,175.216003 218.968826,175.193359 
	C223.672836,175.388809 228.376862,175.584259 233.773804,176.141083 
	C235.157471,176.489319 235.848190,176.476166 236.538925,176.463013 
	C237.531479,176.877640 238.524048,177.292267 239.780334,178.261230 
	C241.359940,180.886307 242.675827,182.957016 243.991730,185.027740 
	C232.351746,181.490067 220.489853,181.541656 208.556931,182.872803 
	C202.884628,183.505554 201.784866,182.577744 201.745636,176.889404 
	C201.731903,174.899139 201.753387,172.908661 202.088135,170.305328 
	C202.200134,168.778275 201.982788,167.864136 201.765442,166.950012 
	C198.720154,154.642044 194.892731,142.682297 187.599548,132.061035 
	C185.995331,129.724747 185.949661,127.585091 189.890854,126.178253 
	C193.992569,124.714111 197.520172,121.600685 201.242462,119.123749 
	C207.326630,115.075119 213.451935,111.078392 219.380325,106.810387 
	C221.761337,105.096230 224.080917,102.985558 225.631271,100.548271 
	C226.527267,99.139679 225.834274,96.720329 225.856430,94.755882 
	C224.181702,94.873367 222.129227,94.406860 220.894974,95.205276 
	C214.056183,99.629112 207.430374,104.381065 200.704529,108.981033 
	C194.288315,113.369286 187.838867,117.709000 181.408783,122.066841 
	C176.499619,117.218895 176.320801,116.028313 181.087906,111.693558 
	C197.322769,96.931122 213.701584,82.327080 229.962082,67.592667 
	C238.834579,59.552868 247.579391,51.372154 256.690887,43.127495 
	C257.000000,45.700012 257.000000,48.400028 256.646362,51.548584 
	C253.510803,54.954720 250.728851,57.912315 247.946899,60.869911 
	C247.738602,61.162785 247.530289,61.455658 246.779770,61.704697 
	C245.158508,62.448849 244.079468,63.236835 242.663757,64.083313 
	C238.546127,68.403175 234.765137,72.664543 230.984161,76.925903 
	C230.984161,76.925911 230.797226,77.241493 230.220367,77.136932 
	C229.104263,77.025261 228.565033,77.018135 227.656921,77.013748 
	C221.587326,79.144943 215.624115,88.732353 217.493942,94.186310 
	C219.150711,92.638023 220.578995,91.303276 222.396225,89.974762 
	C223.299637,89.931160 223.814102,89.881332 224.328552,89.831505 
	C225.815216,90.582428 227.301865,91.333351 228.929535,92.744598 
	C229.717224,94.604385 230.363907,95.803833 231.019409,97.331345 
	C231.316971,98.432373 231.605713,99.205338 231.894440,99.978294 
	C232.445358,104.674652 230.442688,107.656639 226.212402,109.817566 
	C223.802536,111.048599 221.982544,113.434380 219.354401,115.567612 
	C217.834824,116.768784 216.857788,117.702522 215.880737,118.636261 
	C214.806061,119.338448 213.731400,120.040642 212.013992,120.889923 
	C207.814774,122.681137 204.117645,124.088539 200.766968,126.079102 
	C199.308243,126.945709 198.560684,129.009460 197.490143,130.529495 
z"/>
<path fill="#0E0E0E" opacity="1.000000" stroke="none" 
	d="
M98.562500,1.000000 
	C99.116890,17.436281 99.033394,33.877213 99.414658,50.307358 
	C99.714661,63.235214 100.876961,76.145439 101.070381,89.072266 
	C101.152573,94.565857 100.195465,100.196289 98.854561,105.550117 
	C97.847832,109.569733 98.719513,110.862091 102.628403,110.510788 
	C105.764503,110.228928 108.895882,109.882378 112.036209,109.662308 
	C116.939461,109.318695 119.703606,112.439903 117.557289,116.887062 
	C112.079926,128.236115 104.415665,137.698242 91.778732,141.647812 
	C89.671593,142.306381 87.172493,141.710831 84.299667,141.589172 
	C83.744835,141.483551 83.331345,141.293106 83.211426,141.009094 
	C82.400787,139.442322 81.710068,138.159576 81.026291,136.609283 
	C81.305557,135.911453 81.577881,135.481171 81.850204,135.050888 
	C88.550491,137.871460 92.795280,132.777557 97.338646,129.725601 
	C100.139832,127.843933 101.813141,124.283234 104.970169,120.217812 
	C100.775612,120.217812 98.225304,120.144981 95.681274,120.240143 
	C93.527290,120.320709 91.321045,120.991959 89.246292,120.680328 
	C86.863091,120.322380 84.599174,119.170135 82.283447,118.362907 
	C83.085663,116.234436 83.400955,113.698334 84.779160,112.052071 
	C89.355202,106.585999 88.971100,99.988800 89.621422,93.614372 
	C92.732788,63.117191 91.985558,32.516628 92.005013,1.468634 
	C94.041664,1.000000 96.083336,1.000000 98.562500,1.000000 
z"/>
<path fill="#EDEDED" opacity="1.000000" stroke="none" 
	d="
M117.793991,190.900940 
	C118.663437,189.968765 119.532875,189.036575 121.249901,187.195648 
	C113.101501,182.342163 105.415413,177.764038 96.953499,172.723801 
	C100.326607,170.297119 102.876541,168.243820 105.660141,166.581909 
	C106.600708,166.020355 108.530716,165.915451 109.332077,166.511429 
	C115.703773,171.250214 122.942841,175.376297 127.802879,181.396179 
	C130.953903,185.299179 131.126358,192.012039 131.648651,197.558609 
	C133.447495,216.661804 127.706680,234.291016 120.314552,251.534500 
	C119.689636,252.992249 119.555550,254.660400 119.096718,256.615417 
	C114.643097,257.000000 110.286201,257.000000 105.232841,256.646301 
	C105.706749,252.656403 104.938034,250.937500 100.609413,251.580093 
	C96.367355,252.209869 92.042221,252.375397 87.746666,252.492615 
	C86.427147,252.528625 85.084984,251.734909 83.753189,251.321136 
	C84.306648,249.861008 84.472740,248.015549 85.478073,247.004929 
	C90.923706,241.530624 96.159042,235.524551 104.967255,236.273026 
	C104.987976,237.462708 105.003166,238.255798 104.863548,239.387268 
	C102.801277,240.789139 100.893822,241.852615 98.139816,243.388077 
	C100.526039,245.039536 102.207047,246.202927 104.000412,247.670273 
	C106.794319,249.725159 109.475876,251.476074 112.735100,253.604156 
	C114.102531,250.150528 115.125107,247.567841 116.454666,244.846649 
	C119.491608,239.831085 123.828377,235.406662 121.219543,228.613602 
	C122.539322,220.555862 123.933075,212.915421 125.016151,205.231186 
	C125.250473,203.568771 124.367554,201.748886 124.023315,199.620819 
	C123.529663,197.494766 123.288353,195.581284 122.373505,194.077576 
	C121.938934,193.363281 120.219849,193.430511 119.027573,192.807953 
	C118.579643,191.948456 118.186813,191.424698 117.793991,190.900940 
z"/>
<path fill="#090909" opacity="1.000000" stroke="none" 
	d="
M135.468658,257.000000 
	C136.322006,254.190521 137.623520,251.371109 138.976227,248.576477 
	C139.509003,247.475830 140.303467,246.484756 140.721283,245.349045 
	C141.684738,242.730225 142.178406,239.894882 143.428101,237.434586 
	C145.724426,232.913757 147.165314,232.949753 151.552231,235.607834 
	C155.599762,238.060287 160.019775,239.897995 164.109558,242.557999 
	C160.377747,246.035934 162.901413,247.133286 165.521011,247.802185 
	C167.225845,248.237503 169.091705,248.042206 171.169952,248.332474 
	C175.040192,250.022629 178.569580,251.679657 182.244370,252.898117 
	C183.417908,253.287231 184.977036,252.513443 186.359726,252.271744 
	C186.683228,252.267426 186.969040,252.161438 187.699463,251.744263 
	C189.467636,250.423965 190.753464,249.313187 192.338440,248.109344 
	C193.500748,247.446396 194.363922,246.876511 195.579254,246.229202 
	C198.077255,245.040558 200.636230,242.569839 202.291489,243.072861 
	C207.273407,244.586884 211.903397,247.258972 216.774124,249.527573 
	C217.039673,249.123734 217.581375,248.299911 218.480453,247.593475 
	C224.140991,249.785141 229.485992,251.762512 234.710846,254.018173 
	C235.715729,254.451996 236.249115,255.977905 237.000000,257.000000 
	C203.312439,257.000000 169.624878,257.000000 135.468658,257.000000 
z"/>
<path fill="#E8E8E8" opacity="1.000000" stroke="none" 
	d="
M257.000000,34.555840 
	C252.051788,38.467381 246.703186,41.485767 242.224442,45.479622 
	C222.519287,63.051430 203.014008,80.848999 183.563599,98.703438 
	C179.688705,102.260384 176.371719,106.425110 172.815353,110.290138 
	C166.019608,104.269341 159.379669,98.806786 153.326157,92.757408 
	C151.596741,91.029175 151.567520,87.599564 150.576569,84.353546 
	C152.433807,84.510132 153.753754,84.954376 154.833252,84.620728 
	C155.959457,84.272636 157.243347,83.354645 157.710999,82.341034 
	C158.015564,81.680901 157.218948,80.177917 156.508850,79.448570 
	C154.544891,77.431381 152.367523,75.621956 150.287552,73.199066 
	C152.798111,73.786484 155.295624,74.905228 157.914001,76.303864 
	C158.599808,77.110703 159.164780,77.637642 159.899857,78.488052 
	C160.843338,80.609261 161.616730,82.406975 162.390106,84.204697 
	C162.559814,89.612457 164.610870,93.883972 169.033859,97.319565 
	C171.539368,99.265755 173.043533,99.430519 175.212082,97.180496 
	C177.833160,94.460968 180.720749,91.998306 184.079666,89.242416 
	C187.439346,86.950668 190.031143,84.530350 193.018250,82.787659 
	C203.328583,76.772560 209.796707,67.059082 217.202728,58.234707 
	C228.674530,51.489143 237.044144,41.346737 246.288574,32.110901 
	C248.749344,29.652451 252.953613,28.939133 256.678711,27.212288 
	C257.000000,29.370558 257.000000,31.741114 257.000000,34.555840 
z"/>
<path fill="#E0E0E0" opacity="1.000000" stroke="none" 
	d="
M244.192688,185.319611 
	C242.675827,182.957016 241.359940,180.886307 240.014160,178.485657 
	C243.496216,179.150970 246.553116,179.974960 247.502365,184.686050 
	C248.504196,189.658081 247.149506,192.584061 242.719299,194.015045 
	C237.685120,195.641129 232.464478,196.680420 227.365662,198.119263 
	C223.817291,199.120544 219.084549,199.379837 221.772797,205.347382 
	C221.948547,205.737534 221.493607,206.493195 221.198959,207.001709 
	C216.044769,215.896942 219.816544,224.917618 229.312759,228.014999 
	C238.454895,230.996918 247.312912,234.849899 256.647888,238.160080 
	C257.000000,240.041672 257.000000,242.083328 257.000000,244.562500 
	C252.852432,243.951157 248.602524,243.196274 244.577637,241.795029 
	C234.843063,238.405960 225.259827,234.581055 215.516846,231.217941 
	C212.025162,230.012665 210.144669,228.391510 210.571259,224.443954 
	C211.695877,214.037308 212.522095,203.596176 213.836090,193.215485 
	C213.974167,192.124786 216.558014,190.571106 218.025772,190.550354 
	C225.834305,190.440002 233.649567,190.899200 241.460892,190.857346 
	C246.026596,190.832870 246.694077,189.367874 244.192688,185.319611 
z"/>
<path fill="#EBEBEB" opacity="1.000000" stroke="none" 
	d="
M195.227081,246.306641 
	C194.363922,246.876511 193.500748,247.446396 192.231247,247.826660 
	C191.495316,247.415649 191.165710,247.194260 190.836121,246.972885 
	C188.907379,241.270844 185.521698,236.795303 180.122925,233.905167 
	C175.878983,231.633286 171.567871,229.427460 167.605026,226.725266 
	C166.380402,225.890213 166.201874,223.521072 165.544388,221.854324 
	C167.010651,222.014252 168.569519,221.908646 169.926514,222.381912 
	C174.771957,224.071823 179.510849,226.067780 184.358627,227.750336 
	C200.626266,233.396469 216.970795,238.824692 233.188934,244.608231 
	C240.989365,247.389938 248.572678,250.780487 256.627167,253.947647 
	C257.000000,254.980530 257.000000,255.961060 257.000000,257.000000 
	C250.646103,257.000000 244.292099,257.000000 237.469040,257.000000 
	C236.249115,255.977905 235.715729,254.451996 234.710846,254.018173 
	C229.485992,251.762512 224.140991,249.785141 218.383301,247.268280 
	C212.567932,244.876007 207.243439,242.816132 201.828339,241.031082 
	C199.677216,240.321976 197.325348,240.221939 195.064865,239.844604 
	C195.118942,241.998627 195.173004,244.152634 195.227081,246.306641 
z"/>
<path fill="#E9E9E9" opacity="1.000000" stroke="none" 
	d="
M36.685806,162.850616 
	C39.750347,158.622330 37.012283,155.857834 33.940529,153.732178 
	C23.285364,146.358810 12.466968,139.221344 1.355337,131.997070 
	C1.000000,129.958328 1.000000,127.916664 1.000000,125.437500 
	C8.850959,129.252777 18.112043,130.959839 24.028976,138.751282 
	C25.887564,141.198669 29.441532,142.358566 32.807388,144.342850 
	C34.141750,144.466553 35.342480,144.608948 35.567474,144.206207 
	C39.835518,136.566742 43.988430,128.862961 48.165283,121.172546 
	C48.918537,118.648468 49.671791,116.124397 50.422409,112.897751 
	C50.330410,111.786812 50.241043,111.378441 50.370117,110.789322 
	C50.726143,110.069519 50.863731,109.530457 51.001320,108.991394 
	C51.763939,109.004608 52.526562,109.017815 53.648525,109.162819 
	C54.352253,111.657547 54.696640,114.020485 55.060120,116.789078 
	C54.211113,119.435379 53.798031,122.021812 52.400837,123.860374 
	C43.533325,135.529037 41.150269,149.123718 40.565720,163.187119 
	C40.193588,172.140030 40.454208,181.119263 40.000793,190.331802 
	C39.382908,182.887711 39.317318,175.191971 38.907745,167.514618 
	C38.822937,165.924957 37.459789,164.403503 36.685806,162.850616 
z"/>
<path fill="#101010" opacity="1.000000" stroke="none" 
	d="
M104.961739,235.876434 
	C96.159042,235.524551 90.923706,241.530624 85.478073,247.004929 
	C84.472740,248.015549 84.306648,249.861008 83.753189,251.321136 
	C85.084984,251.734909 86.427147,252.528625 87.746666,252.492615 
	C92.042221,252.375397 96.367355,252.209869 100.609413,251.580093 
	C104.938034,250.937500 105.706749,252.656403 104.768188,256.646301 
	C92.979103,257.000000 80.958214,257.000000 68.450211,256.640289 
	C69.144485,254.090012 70.221237,251.834991 71.524521,249.719528 
	C78.953575,237.661011 89.070595,229.986115 103.964523,230.409821 
	C104.685844,231.186523 105.335106,231.654343 105.972321,232.412170 
	C105.967842,233.281860 105.975403,233.861572 105.792778,234.672653 
	C105.388977,235.228165 105.175362,235.552307 104.961739,235.876434 
z"/>
<path fill="#E8E8E8" opacity="1.000000" stroke="none" 
	d="
M103.892464,230.100952 
	C89.070595,229.986115 78.953575,237.661011 71.524521,249.719528 
	C70.221237,251.834991 69.144485,254.090012 67.981552,256.640289 
	C65.299988,257.000000 62.599972,257.000000 59.448776,256.632629 
	C56.996410,253.867462 54.995220,251.469635 53.317413,248.962158 
	C55.894165,249.349411 58.147533,249.846329 60.824280,250.436600 
	C65.431824,244.943008 70.417824,238.998169 75.732040,232.951584 
	C76.375504,231.535858 76.690750,230.221909 77.235168,228.649384 
	C80.956444,227.449066 84.448540,226.507324 88.122833,225.949417 
	C92.692749,225.699615 97.080460,225.065994 101.721992,224.528214 
	C102.280869,224.816666 102.585922,225.009262 102.914268,225.525940 
	C103.255859,227.266998 103.574165,228.683975 103.892464,230.100952 
z"/>
<path fill="#F2F2F2" opacity="1.000000" stroke="none" 
	d="
M52.994038,249.071808 
	C54.995220,251.469635 56.996410,253.867462 58.998798,256.632629 
	C56.958332,257.000000 54.916668,257.000000 52.437500,257.000000 
	C51.640308,256.329132 51.438919,255.468567 50.896858,255.016235 
	C44.305134,249.515686 37.606022,244.142654 31.061422,238.587357 
	C28.280497,236.226791 28.041649,233.981567 31.976868,232.265396 
	C34.241798,231.277664 36.355152,229.889038 38.420246,228.506836 
	C43.752869,224.937668 43.742550,223.974976 38.789299,219.463287 
	C40.897800,219.033691 42.795429,219.030914 44.769611,219.365723 
	C45.201023,222.196838 45.555882,224.690399 45.784241,227.518616 
	C45.378906,228.232529 45.100067,228.611771 44.464005,229.095764 
	C43.893578,230.076492 43.680378,230.952469 43.471264,232.176636 
	C42.973534,234.353302 42.471718,236.181808 41.753906,238.165649 
	C41.934795,238.885681 42.331680,239.450348 43.025841,240.187836 
	C45.548000,242.587051 47.772884,244.813492 50.069237,247.391754 
	C50.936832,248.100601 51.732964,248.457642 52.695759,248.787781 
	C52.862423,248.760864 52.994041,249.071808 52.994038,249.071808 
z"/>
<path fill="#E9E9E9" opacity="1.000000" stroke="none" 
	d="
M1.000000,158.468658 
	C1.164364,157.984543 1.345892,157.915329 1.490572,157.961517 
	C4.606977,158.956589 8.144396,159.342499 10.734752,161.112823 
	C14.830125,163.911743 9.459488,166.796768 9.961383,169.964798 
	C10.446581,173.027466 9.980561,176.227921 10.158738,179.354935 
	C10.488331,185.139267 9.973381,185.695969 4.287165,184.966431 
	C3.469532,184.861526 2.652307,184.753433 1.417447,184.823410 
	C1.000000,176.312439 1.000000,167.624863 1.000000,158.468658 
z"/>
<path fill="#E8E8E8" opacity="1.000000" stroke="none" 
	d="
M1.000000,142.444168 
	C5.873613,144.592606 10.841600,147.031433 15.537425,149.913696 
	C16.425930,150.459061 16.233482,152.765533 16.539806,154.259399 
	C15.225624,154.151352 13.807583,154.323944 12.616531,153.883163 
	C8.881855,152.501083 5.232673,150.888000 1.275189,149.682190 
	C1.000000,147.629440 1.000000,145.258896 1.000000,142.444168 
z"/>
<path fill="#D0D0D0" opacity="1.000000" stroke="none" 
	d="
M248.300171,60.842770 
	C250.728851,57.912315 253.510803,54.954720 256.646362,51.998566 
	C257.000000,53.388889 257.000000,54.777779 257.000000,56.583336 
	C254.217819,58.271881 251.435638,59.543758 248.300171,60.842770 
z"/>
<path fill="#6E6E6E" opacity="1.000000" stroke="none" 
	d="
M216.855286,58.161179 
	C209.796707,67.059082 203.328583,76.772560 193.018250,82.787659 
	C190.031143,84.530350 187.439346,86.950668 184.315704,89.010361 
	C185.317703,87.172447 186.433670,85.125130 188.062027,83.639359 
	C197.477005,75.048737 207.012878,66.590630 216.855286,58.161179 
z"/>
<path fill="#6E6E6E" opacity="1.000000" stroke="none" 
	d="
M162.713379,84.079155 
	C161.616730,82.406975 160.843338,80.609261 159.955414,78.136307 
	C159.479141,76.643890 159.117416,75.826721 158.707642,74.682343 
	C156.775223,72.306580 154.890823,70.258026 153.006424,68.209473 
	C154.579376,68.592957 156.353378,68.637321 157.685486,69.427063 
	C160.948074,71.361290 163.679825,75.284698 168.359665,69.886322 
	C166.220016,75.540810 164.628326,79.747208 162.713379,84.079155 
z"/>
<path fill="#B1B1B1" opacity="1.000000" stroke="none" 
	d="
M126.681580,92.279633 
	C124.686058,95.414703 125.188438,100.946663 118.604271,102.330399 
	C119.964119,97.497108 121.083084,93.519974 122.467133,89.300247 
	C123.920952,90.172775 125.109688,91.287903 126.681580,92.279633 
z"/>
<path fill="#E0E0E0" opacity="1.000000" stroke="none" 
	d="
M152.637634,68.185379 
	C154.890823,70.258026 156.775223,72.306580 158.509430,74.809288 
	C158.150833,75.502274 157.962143,75.755783 157.793152,76.023972 
	C155.295624,74.905228 152.798111,73.786484 150.109192,72.918427 
	C148.890778,73.147278 147.863724,73.125435 146.452286,73.134583 
	C146.039215,72.916046 146.010559,72.666534 146.042725,71.760353 
	C147.443192,70.263229 148.782806,69.422768 150.122421,68.582306 
	C150.837891,68.441963 151.553360,68.301628 152.637634,68.185379 
z"/>
<path fill="#B1B1B1" opacity="1.000000" stroke="none" 
	d="
M120.514412,53.747360 
	C119.414650,50.552216 118.780472,46.856236 117.489983,43.405716 
	C116.856926,41.713062 115.005966,40.475906 113.320312,38.997463 
	C113.932610,37.830967 114.930779,36.699615 115.928940,35.568264 
	C116.432686,35.641434 116.936424,35.714607 117.440170,35.787777 
	C118.529984,41.641068 119.619797,47.494354 120.514412,53.747360 
z"/>
<path fill="#B1B1B1" opacity="1.000000" stroke="none" 
	d="
M149.726227,68.476715 
	C148.782806,69.422768 147.443192,70.263229 145.997528,71.386337 
	C143.586838,72.464546 141.282166,73.260109 138.615479,74.094910 
	C138.253464,72.215652 138.253464,70.297157 138.253464,69.053413 
	C141.894241,68.829155 145.612122,68.600143 149.726227,68.476715 
z"/>
<path fill="#9F9F9F" opacity="1.000000" stroke="none" 
	d="
M137.739395,74.320793 
	C137.096680,75.832474 136.075790,77.433556 134.745880,79.104263 
	C134.241638,77.769882 134.046387,76.365860 133.827255,74.790070 
	C135.006760,74.663284 136.183990,74.536736 137.739395,74.320793 
z"/>
<path fill="#9F9F9F" opacity="1.000000" stroke="none" 
	d="
M132.941986,80.795792 
	C132.506287,82.188377 131.748550,83.610191 130.688293,85.094154 
	C130.641022,83.460068 129.196198,80.886887 132.941986,80.795792 
z"/>
<path fill="#B1B1B1" opacity="1.000000" stroke="none" 
	d="
M122.151321,72.828758 
	C121.794785,72.444771 121.584480,71.888626 121.581863,71.187416 
	C121.958885,71.580437 122.128220,72.118515 122.151321,72.828758 
z"/>
<path fill="#E9E9E9" opacity="1.000000" stroke="none" 
	d="
M51.905781,92.921906 
	C52.934456,91.832771 53.950077,90.730957 54.993927,89.656563 
	C61.976902,82.469292 66.806389,74.815750 66.886368,63.892651 
	C66.987015,50.147739 69.055901,36.405724 70.550377,22.692410 
	C70.843513,20.002640 72.389008,17.449352 73.937881,14.612636 
	C75.014359,14.594422 75.509865,14.796690 76.005371,14.998959 
	C76.096138,25.818642 76.502037,36.647587 76.184326,47.455265 
	C75.897133,57.224968 74.945793,66.984062 73.973312,76.716454 
	C73.798920,78.461723 72.264465,80.186203 71.072670,81.694893 
	C65.752518,88.429649 60.400089,95.142677 54.870533,101.704453 
	C53.980087,102.761131 52.133606,103.012169 50.144539,103.384369 
	C49.206795,101.661377 48.853580,100.189644 48.500359,98.717918 
	C48.793663,98.145561 49.086967,97.573196 49.828255,96.634712 
	C50.819420,95.153023 51.362598,94.037460 51.905781,92.921906 
z"/>
<path fill="#6E6E6E" opacity="1.000000" stroke="none" 
	d="
M47.770760,121.157921 
	C43.988430,128.862961 39.835518,136.566742 35.567474,144.206207 
	C35.342480,144.608948 34.141750,144.466553 33.198296,144.299957 
	C33.135910,142.804977 32.842094,141.268936 33.473091,140.421600 
	C38.359730,133.859634 40.389530,126.325539 41.302322,118.367439 
	C43.391655,119.322289 45.383945,120.232796 47.770760,121.157921 
z"/>
<path fill="#6E6E6E" opacity="1.000000" stroke="none" 
	d="
M48.184845,98.888130 
	C48.853580,100.189644 49.206795,101.661377 49.780510,103.453171 
	C49.660736,104.958565 49.320465,106.143890 49.048477,108.048126 
	C49.461735,109.501381 49.806709,110.235725 50.151680,110.970070 
	C50.241043,111.378441 50.330410,111.786812 50.316635,112.491676 
	C48.785549,112.710289 47.357605,112.632401 44.931301,112.500069 
	C45.946583,107.855057 46.907955,103.456703 48.184845,98.888130 
z"/>
<path fill="#484848" opacity="1.000000" stroke="none" 
	d="
M76.286575,14.826819 
	C75.509865,14.796690 75.014359,14.594422 74.129654,14.290757 
	C75.212112,12.621686 76.683784,11.054011 78.155449,9.486337 
	C78.588783,9.875548 79.022118,10.264760 79.455452,10.653972 
	C78.492897,11.987541 77.530342,13.321111 76.286575,14.826819 
z"/>
<path fill="#6E6E6E" opacity="1.000000" stroke="none" 
	d="
M51.546432,92.918770 
	C51.362598,94.037460 50.819420,95.153023 49.957870,96.340332 
	C50.155361,95.246597 50.671223,94.081116 51.546432,92.918770 
z"/>
<path fill="#C7C7C7" opacity="1.000000" stroke="none" 
	d="
M50.370117,110.789322 
	C49.806709,110.235725 49.461735,109.501381 49.058350,108.431679 
	C49.538887,108.257919 50.077827,108.419510 50.809044,108.786255 
	C50.863731,109.530457 50.726143,110.069519 50.370117,110.789322 
z"/>
<path fill="#EDEDED" opacity="1.000000" stroke="none" 
	d="
M197.550018,197.277679 
	C196.556717,204.246002 195.802338,210.815063 194.468475,217.264313 
	C193.693253,221.012543 191.539154,222.914474 187.169022,220.782394 
	C182.862198,218.681229 178.190475,217.319244 173.656128,215.696411 
	C170.875565,214.701248 168.923248,213.226410 169.607529,209.861313 
	C170.885254,203.577972 172.152954,197.292618 173.507660,190.598770 
	C180.328735,190.598770 187.732010,190.374374 195.086029,190.874451 
	C196.036484,190.939102 196.732071,194.751694 197.550018,197.277679 
M187.461746,208.594391 
	C188.305725,206.063416 189.149704,203.532455 190.622803,200.776489 
	C190.680176,199.712021 190.737534,198.647552 190.794907,197.583084 
	C189.511627,197.955124 188.228363,198.327179 186.118073,198.874313 
	C183.942032,199.217926 181.766006,199.561539 178.985977,200.037918 
	C178.997665,201.026779 179.009338,202.015625 179.027863,203.770935 
	C179.316681,206.036697 179.605484,208.302444 180.169785,211.208817 
	C183.029175,212.452972 185.777908,213.321213 187.461746,208.594391 
z"/>
<path fill="#F2F2F2" opacity="1.000000" stroke="none" 
	d="
M202.772217,225.408173 
	C198.900543,226.081436 197.790771,223.763123 199.020447,221.407806 
	C203.546463,212.738831 201.611176,203.516342 201.880478,194.499207 
	C201.967224,191.594208 202.451065,189.972702 206.717728,191.320267 
	C206.069138,199.439163 205.466339,207.893417 204.680740,216.330643 
	C204.402298,219.320984 203.678635,222.269897 202.772217,225.408173 
z"/>
<path fill="#B1B1B1" opacity="1.000000" stroke="none" 
	d="
M190.513504,247.070557 
	C191.165710,247.194260 191.495316,247.415649 191.932098,247.919739 
	C190.753464,249.313187 189.467636,250.423965 187.855301,251.572128 
	C187.369247,250.719727 187.209702,249.829926 187.016861,248.489288 
	C188.052673,247.748367 189.121780,247.458298 190.513504,247.070557 
z"/>
<path fill="#E0E0E0" opacity="1.000000" stroke="none" 
	d="
M201.662247,167.250458 
	C201.982788,167.864136 202.200134,168.778275 202.184784,169.854462 
	C201.821075,169.194641 201.690063,168.372757 201.662247,167.250458 
z"/>
<path fill="#B1B1B1" opacity="1.000000" stroke="none" 
	d="
M209.773651,167.719757 
	C209.490082,168.069016 209.222366,168.064804 209.187164,167.972198 
	C205.467026,158.185013 201.754257,148.394989 198.085693,138.588425 
	C197.865219,137.999084 198.005692,137.274719 198.066010,136.201569 
	C199.762924,138.581619 201.865280,141.205261 202.884598,144.197815 
	C205.480484,151.818985 207.592438,159.604996 209.773651,167.719757 
z"/>
<path fill="#F0F0F0" opacity="1.000000" stroke="none" 
	d="
M222.007263,89.968521 
	C220.578995,91.303276 219.150711,92.638023 217.493942,94.186310 
	C215.624115,88.732353 221.587326,79.144943 227.531158,77.289551 
	C227.548157,78.111557 227.322052,78.660492 227.095947,79.209427 
	C225.718689,81.267052 224.341431,83.324669 222.448517,85.722366 
	C221.957672,87.364471 221.982468,88.666496 222.007263,89.968521 
z"/>
<path fill="#D0D0D0" opacity="1.000000" stroke="none" 
	d="
M231.342224,76.956604 
	C234.765137,72.664543 238.546127,68.403175 243.034225,64.075806 
	C244.233185,64.041862 244.725006,64.073944 245.216843,64.106018 
	C242.166443,69.926651 237.881790,74.452164 231.342224,76.956604 
z"/>
<path fill="#B1B1B1" opacity="1.000000" stroke="none" 
	d="
M197.812958,130.392334 
	C198.560684,129.009460 199.308243,126.945709 200.766968,126.079102 
	C204.117645,124.088539 207.814774,122.681137 211.735809,121.050446 
	C211.723907,122.643723 211.347458,124.223572 210.903656,126.086037 
	C205.527924,124.123726 201.801102,127.101852 197.812958,130.392334 
z"/>
<path fill="#F0F0F0" opacity="1.000000" stroke="none" 
	d="
M231.010590,97.003281 
	C230.363907,95.803833 229.717224,94.604385 229.103943,93.003571 
	C230.196060,93.815613 231.254807,95.029022 231.937195,96.609375 
	C231.377426,96.985306 231.194016,96.994293 231.010590,97.003281 
z"/>
<path fill="#B1B1B1" opacity="1.000000" stroke="none" 
	d="
M216.282623,118.698166 
	C216.857788,117.702522 217.834824,116.768784 219.116547,115.824493 
	C219.548050,116.672562 219.674881,117.531174 219.784744,118.804512 
	C219.767761,119.219238 219.812103,119.184303 219.812103,119.184296 
	C218.769562,119.042892 217.727020,118.901482 216.282623,118.698166 
z"/>
<path fill="#D0D0D0" opacity="1.000000" stroke="none" 
	d="
M222.396225,89.974762 
	C221.982468,88.666496 221.957672,87.364471 222.235352,85.995224 
	C223.018585,87.011894 223.499313,88.095795 224.154297,89.505600 
	C223.814102,89.881332 223.299637,89.931160 222.396225,89.974762 
z"/>
<path fill="#F0F0F0" opacity="1.000000" stroke="none" 
	d="
M245.473389,63.977966 
	C244.725006,64.073944 244.233185,64.041862 243.370880,64.017303 
	C244.079468,63.236835 245.158508,62.448849 246.519394,61.788849 
	C246.444138,62.561195 246.087036,63.205555 245.473389,63.977966 
z"/>
<path fill="#D0D0D0" opacity="1.000000" stroke="none" 
	d="
M231.019409,97.331345 
	C231.194016,96.994293 231.377426,96.985306 231.836304,96.976654 
	C232.162018,97.845131 232.212280,98.713287 232.078491,99.779869 
	C231.605713,99.205338 231.316971,98.432373 231.019409,97.331345 
z"/>
<path fill="#D0D0D0" opacity="1.000000" stroke="none" 
	d="
M227.433502,79.183716 
	C227.322052,78.660492 227.548157,78.111557 227.900024,77.286819 
	C228.565033,77.018135 229.104263,77.025261 230.037201,77.127899 
	C229.544281,77.868279 228.657669,78.513145 227.433502,79.183716 
z"/>
<path fill="#B1B1B1" opacity="1.000000" stroke="none" 
	d="
M236.415771,176.239517 
	C235.848190,176.476166 235.157471,176.489319 234.228317,176.225311 
	C234.757462,175.970779 235.525040,175.993408 236.415771,176.239517 
z"/>
<path fill="#B1B1B1" opacity="1.000000" stroke="none" 
	d="
M218.777451,174.943359 
	C218.289169,175.216003 217.609528,175.238632 216.867798,175.010162 
	C217.399170,174.737152 217.992615,174.715240 218.777451,174.943359 
z"/>
<path fill="#B1B1B1" opacity="1.000000" stroke="none" 
	d="
M219.746140,119.237381 
	C220.079910,119.292015 220.435318,119.328499 220.790710,119.364983 
	C220.701569,119.397499 220.597824,119.475433 220.526505,119.452492 
	C220.401428,119.412270 220.296219,119.310219 219.997406,119.209190 
	C219.812103,119.184303 219.767761,119.219238 219.746140,119.237381 
z"/>
<path fill="#020202" opacity="1.000000" stroke="none" 
	d="
M81.863770,134.702576 
	C81.577881,135.481171 81.305557,135.911453 80.663208,136.557037 
	C77.528709,138.330536 77.687408,138.992981 81.693878,142.337463 
	C82.494225,143.160904 83.156052,143.687805 83.817879,144.214691 
	C83.817879,144.214691 83.917549,144.066818 83.880981,144.427155 
	C83.933289,145.178909 84.022171,145.570328 83.853745,146.147827 
	C84.003212,147.242645 84.409981,148.151398 85.264069,149.037811 
	C86.837563,148.624649 87.963753,148.233810 89.089943,147.842987 
	C89.493622,148.139923 89.897293,148.436874 90.653046,148.866165 
	C89.913612,151.047363 89.270325,153.589737 87.652481,155.059036 
	C80.894096,161.196899 73.843010,167.012451 66.164940,172.985046 
	C62.417362,174.006439 59.404060,174.988968 56.390755,175.971497 
	C57.069401,169.439819 57.520969,162.874374 58.485653,156.385208 
	C59.625668,148.716644 61.208931,141.113968 62.720570,132.684662 
	C62.895241,131.274811 62.949394,130.662994 63.003544,130.051193 
	C64.244514,129.816299 65.485489,129.581406 67.137604,129.268692 
	C65.595581,125.951599 63.038410,122.681496 67.774460,119.796539 
	C73.578743,122.372925 78.769829,124.899734 83.969643,127.736084 
	C84.311356,129.013245 84.644333,129.980865 84.977310,130.948486 
	C83.943993,132.083740 82.910667,133.219009 81.863770,134.702576 
z"/>
<path fill="#222222" opacity="1.000000" stroke="none" 
	d="
M109.452187,145.841537 
	C109.094406,145.761398 109.157639,145.325348 109.103256,144.807678 
	C109.728951,140.171631 111.090286,136.623657 116.473419,136.445740 
	C115.120697,135.333481 114.275368,134.638412 113.430038,133.943359 
	C116.797386,131.691010 120.785233,127.022507 123.401596,127.694412 
	C128.682556,129.050644 135.967300,129.408051 137.321838,137.704803 
	C135.267075,141.964417 133.455032,145.594452 131.400970,149.709320 
	C133.274796,149.828766 134.247940,149.890808 135.221100,149.952835 
	C134.919449,151.721313 134.617798,153.489792 133.767273,155.635132 
	C132.102737,156.418930 130.987061,156.825867 129.871384,157.232788 
	C129.179367,156.831909 128.487350,156.431046 127.494400,155.534943 
	C125.796150,152.315170 124.398834,149.590637 122.692726,146.263992 
	C121.231972,147.956238 120.001968,149.381149 118.771965,150.806076 
	C115.784630,149.177948 112.797295,147.549820 109.452187,145.841537 
z"/>
<path fill="#2D2D2D" opacity="1.000000" stroke="none" 
	d="
M153.448395,160.614410 
	C154.780884,160.365845 156.113388,160.117264 157.544464,159.850281 
	C157.515457,166.950363 162.607880,175.130402 151.050598,178.056854 
	C149.030228,177.048401 147.581909,176.107544 146.368683,174.925430 
	C145.134857,173.723251 144.132660,172.283325 143.029037,170.947510 
	C141.227707,169.584152 139.426392,168.220810 137.616119,166.225311 
	C137.936264,164.899521 138.265350,164.205856 138.955231,163.472427 
	C140.535202,163.249680 141.754379,163.066727 143.304550,163.071976 
	C147.585159,164.895309 150.657379,163.276367 153.448395,160.614410 
z"/>
<path fill="#2D2D2D" opacity="1.000000" stroke="none" 
	d="
M72.655624,116.884064 
	C72.546120,113.384064 70.309280,115.623856 68.930710,115.483223 
	C66.799995,115.265862 64.676857,114.974182 62.550507,114.714020 
	C62.868599,112.517792 62.785805,110.159409 63.594055,108.161476 
	C64.978218,104.739960 67.770767,105.821106 70.797699,107.139397 
	C71.833435,108.011932 72.393074,108.514252 72.952705,109.016571 
	C72.515892,111.442307 72.079079,113.868034 72.121384,116.625114 
	C72.600510,116.956459 72.655624,116.884064 72.655624,116.884064 
z"/>
<path fill="#484848" opacity="1.000000" stroke="none" 
	d="
M75.002037,108.024185 
	C74.904381,107.888756 74.806725,107.753334 74.486938,107.363853 
	C74.264824,107.109802 73.992104,106.999397 73.992104,106.999397 
	C73.227333,105.462730 72.462563,103.926064 71.271812,101.533478 
	C73.440643,99.564163 76.276138,96.989517 79.759285,93.826790 
	C81.413490,99.317017 81.307938,103.599388 77.835350,107.913506 
	C76.514351,108.135262 75.758194,108.079727 75.002037,108.024185 
z"/>
<path fill="#484848" opacity="1.000000" stroke="none" 
	d="
M152.129608,197.907013 
	C154.865829,197.076477 157.266266,196.417068 159.666687,195.757675 
	C159.946686,196.325134 160.226700,196.892578 160.506699,197.460037 
	C159.231888,199.512085 158.232330,201.830399 156.590622,203.527557 
	C155.390564,204.768143 153.203720,205.996490 151.720718,205.734711 
	C150.443649,205.509308 148.795380,203.214645 148.707642,201.751160 
	C148.638199,200.592667 150.686127,199.307236 152.129608,197.907013 
z"/>
<path fill="#9F9F9F" opacity="1.000000" stroke="none" 
	d="
M72.313431,117.000885 
	C72.655624,116.884064 72.600510,116.956459 72.564087,116.930084 
	C76.646164,120.040848 80.764656,123.177986 84.700417,126.805344 
	C84.332092,127.339233 84.146500,127.382889 83.960907,127.426544 
	C78.769829,124.899734 73.578743,122.372925 68.100365,119.594070 
	C69.199120,118.600586 70.585175,117.859146 72.313431,117.000885 
z"/>
<path fill="#C7C7C7" opacity="1.000000" stroke="none" 
	d="
M142.994400,171.345291 
	C144.132660,172.283325 145.134857,173.723251 146.368683,174.925430 
	C147.581909,176.107544 149.030228,177.048401 150.730881,178.231018 
	C150.403793,179.663437 150.007278,181.586304 148.952545,182.068024 
	C148.026947,182.490753 145.513596,181.623856 145.181290,180.758392 
	C144.080536,177.891602 143.648407,174.768097 142.994400,171.345291 
z"/>
<path fill="#9F9F9F" opacity="1.000000" stroke="none" 
	d="
M153.024445,160.406464 
	C150.657379,163.276367 147.585159,164.895309 143.249237,162.768402 
	C142.626877,161.116684 142.390839,159.956772 142.154785,158.796875 
	C142.797348,158.916290 143.439926,159.035721 144.403564,159.193848 
	C144.724625,159.232529 144.786560,159.200912 144.868317,159.447586 
	C145.634338,159.798553 146.318634,159.902863 147.002914,160.007172 
	C148.868774,160.070938 150.734619,160.134720 153.024445,160.406464 
z"/>
<path fill="#0E0E0E" opacity="1.000000" stroke="none" 
	d="
M56.371567,176.312561 
	C59.404060,174.988968 62.417362,174.006439 65.844719,173.064896 
	C64.122734,175.539352 61.986691,177.972839 59.605930,180.685135 
	C58.373066,179.157486 57.362720,177.905563 56.371567,176.312561 
z"/>
<path fill="#9F9F9F" opacity="1.000000" stroke="none" 
	d="
M118.907257,151.085464 
	C120.001968,149.381149 121.231972,147.956238 122.692726,146.263992 
	C124.398834,149.590637 125.796150,152.315170 127.227539,155.398071 
	C124.521927,154.292557 121.782242,152.828705 118.907257,151.085464 
z"/>
<path fill="#9F9F9F" opacity="1.000000" stroke="none" 
	d="
M138.594437,163.512207 
	C138.265350,164.205856 137.936264,164.899521 137.426025,165.931915 
	C134.808578,163.480240 132.372269,160.689835 129.903671,157.566116 
	C130.987061,156.825867 132.102737,156.418930 133.575714,155.975067 
	C134.223511,156.104828 134.467239,156.323578 134.875153,157.131989 
	C136.255524,159.617142 137.424973,161.564682 138.594437,163.512207 
z"/>
<path fill="#B1B1B1" opacity="1.000000" stroke="none" 
	d="
M185.990540,252.103424 
	C184.977036,252.513443 183.417908,253.287231 182.244370,252.898117 
	C178.569580,251.679657 175.040192,250.022629 171.211609,248.046829 
	C170.985672,247.366455 171.002579,247.174774 171.019485,246.983093 
	C175.886780,248.633759 180.754074,250.284424 185.990540,252.103424 
z"/>
<path fill="#6E6E6E" opacity="1.000000" stroke="none" 
	d="
M170.722977,246.846771 
	C171.002579,247.174774 170.985672,247.366455 170.927094,247.843781 
	C169.091705,248.042206 167.225845,248.237503 165.521011,247.802185 
	C162.901413,247.133286 160.377747,246.035934 164.260590,242.892456 
	C166.527344,244.020401 168.476913,245.365417 170.722977,246.846771 
z"/>
<path fill="#0E0E0E" opacity="1.000000" stroke="none" 
	d="
M83.969643,127.736084 
	C84.146500,127.382889 84.332092,127.339233 84.760582,127.144623 
	C85.197090,128.275284 85.390709,129.556900 85.280815,130.893494 
	C84.644333,129.980865 84.311356,129.013245 83.969643,127.736084 
z"/>
<path fill="#E0E0E0" opacity="1.000000" stroke="none" 
	d="
M73.627060,106.993546 
	C73.992104,106.999397 74.264824,107.109802 74.260605,107.256622 
	C74.014191,107.804558 73.771996,108.205666 73.241257,108.811668 
	C72.393074,108.514252 71.833435,108.011932 71.172867,107.240845 
	C71.801964,106.977280 72.531990,106.982483 73.627060,106.993546 
z"/>
<path fill="#E0E0E0" opacity="1.000000" stroke="none" 
	d="
M75.128799,108.297203 
	C75.758194,108.079727 76.514351,108.135262 77.647522,108.236816 
	C77.101547,108.378616 76.178558,108.474411 75.128799,108.297203 
z"/>
<path fill="#E8E8E8" opacity="1.000000" stroke="none" 
	d="
M146.811462,159.762146 
	C146.318634,159.902863 145.634338,159.798553 144.894348,159.424530 
	C145.432419,159.275558 146.026199,159.396347 146.811462,159.762146 
z"/>
<path fill="#0E0E0E" opacity="1.000000" stroke="none" 
	d="
M62.697144,129.993484 
	C62.949394,130.662994 62.895241,131.274811 62.729034,132.334839 
	C62.541569,131.833954 62.466160,130.884872 62.697144,129.993484 
z"/>
<path fill="#F0F0F0" opacity="1.000000" stroke="none" 
	d="
M87.940636,225.565582 
	C84.448540,226.507324 80.956444,227.449066 76.930344,228.629807 
	C75.991180,228.878571 75.586014,228.888336 75.138153,228.916748 
	C75.095444,228.935379 75.080933,228.843323 75.030876,228.518188 
	C73.327553,227.763504 71.674278,227.333969 69.644028,226.898010 
	C66.862984,226.164139 64.458923,225.436676 61.988689,224.391891 
	C60.272877,223.052063 58.623226,222.029572 56.682667,220.830399 
	C54.928024,220.104904 53.464287,219.556076 51.929497,218.675842 
	C49.917931,216.604218 47.977421,214.864044 46.018433,212.744446 
	C44.721420,211.569229 43.442894,210.773468 41.969803,209.665527 
	C40.653233,206.803787 39.965706,203.913895 38.301369,201.789124 
	C36.127056,199.013275 33.179745,196.842911 30.044537,194.236938 
	C29.173790,193.955383 28.823507,193.848969 28.473228,193.742554 
	C29.031796,191.464233 30.210566,189.081009 29.851418,186.957932 
	C29.702473,186.077454 26.295319,185.441605 24.316027,185.249542 
	C21.387741,184.965439 18.411451,185.176102 15.795767,185.176102 
	C15.278311,184.373795 14.923742,184.078735 14.959152,183.842026 
	C16.123510,176.058884 16.968369,168.203156 18.648493,160.530731 
	C19.746647,155.515930 22.984961,154.947739 27.272175,157.913269 
	C30.009705,159.806854 33.044128,161.271210 36.315620,162.889313 
	C37.459789,164.403503 38.822937,165.924957 38.907745,167.514618 
	C39.317318,175.191971 39.382908,182.887711 39.869576,190.780807 
	C46.287762,207.238464 58.224224,217.290726 74.412140,222.485458 
	C76.251923,223.075851 79.345543,221.985153 80.978180,220.621140 
	C89.384148,213.598236 97.406128,206.117218 105.767937,199.039230 
	C109.291679,196.056473 113.320885,193.670883 117.457153,190.957397 
	C118.186813,191.424698 118.579643,191.948456 118.964401,193.118958 
	C118.279800,195.076263 117.603271,196.386810 116.642700,197.891235 
	C111.146713,203.126099 106.014030,208.252914 100.689323,213.171875 
	C98.033295,215.625519 95.025993,217.698944 91.854630,219.904694 
	C90.334656,221.765213 89.137650,223.665390 87.940636,225.565582 
M24.114975,175.743515 
	C25.076944,176.996902 26.038916,178.250275 27.123213,180.143753 
	C29.119822,182.432739 31.550169,186.143890 34.282547,182.363678 
	C35.870598,180.166611 34.683117,175.963394 34.752403,171.998749 
	C32.953705,167.394379 29.308939,164.702972 26.567823,166.418747 
	C23.477676,168.352982 21.387711,171.115875 24.114975,175.743515 
z"/>
<path fill="#E0E0E0" opacity="1.000000" stroke="none" 
	d="
M86.104012,188.428741 
	C87.154701,186.336838 88.789276,182.944031 89.514351,183.128387 
	C92.094330,183.784363 94.364677,185.658142 96.830650,187.117188 
	C91.701584,193.887726 91.311584,193.917953 86.104012,188.428741 
z"/>
<path fill="#B1B1B1" opacity="1.000000" stroke="none" 
	d="
M135.544220,149.856583 
	C134.247940,149.890808 133.274796,149.828766 131.400970,149.709320 
	C133.455032,145.594452 135.267075,141.964417 137.380524,138.092773 
	C141.638077,139.756866 140.242966,142.626678 138.889404,145.318253 
	C138.091736,146.904404 136.888306,148.286484 135.544220,149.856583 
z"/>
<path fill="#D0D0D0" opacity="1.000000" stroke="none" 
	d="
M113.120407,134.012039 
	C114.275368,134.638412 115.120697,135.333481 116.473419,136.445740 
	C111.090286,136.623657 109.728951,140.171631 108.942719,144.656815 
	C108.469307,143.302704 107.306992,141.200043 107.909676,139.944824 
	C108.978455,137.718872 111.118790,136.007431 113.120407,134.012039 
z"/>
<path fill="#B1B1B1" opacity="1.000000" stroke="none" 
	d="
M138.955231,163.472427 
	C137.424973,161.564682 136.255524,159.617142 135.065247,157.288361 
	C137.227371,157.374481 139.410324,157.841873 141.874023,158.553070 
	C142.390839,159.956772 142.626877,161.116684 142.918228,162.580170 
	C141.754379,163.066727 140.535202,163.249680 138.955231,163.472427 
z"/>
<path fill="#D0D0D0" opacity="1.000000" stroke="none" 
	d="
M89.067207,147.540222 
	C87.963753,148.233810 86.837563,148.624649 85.293213,148.702911 
	C84.620392,147.580811 84.365723,146.771286 84.111053,145.961746 
	C84.022171,145.570328 83.933289,145.178909 83.810654,144.481964 
	C85.532753,145.196793 87.288612,146.217133 89.067207,147.540222 
z"/>
<path fill="#D0D0D0" opacity="1.000000" stroke="none" 
	d="
M83.886147,143.827652 
	C83.156052,143.687805 82.494225,143.160904 82.172012,142.231384 
	C82.784874,141.650208 83.058113,141.471649 83.331345,141.293106 
	C83.331345,141.293106 83.744835,141.483551 83.864517,141.677155 
	C83.974274,142.394043 83.964340,142.917328 83.886147,143.827652 
z"/>
<path fill="#E8E8E8" opacity="1.000000" stroke="none" 
	d="
M42.164364,209.977692 
	C43.442894,210.773468 44.721420,211.569229 45.996067,213.120453 
	C45.559143,215.593307 45.126102,217.310715 44.693062,219.028137 
	C42.795429,219.030914 40.897800,219.033691 38.644493,219.166824 
	C35.513752,220.772018 32.607986,222.050735 30.005898,223.785095 
	C28.003519,225.119720 26.383095,227.027405 24.749872,228.535278 
	C23.987989,228.240021 23.505877,228.204239 23.413313,227.995621 
	C19.022839,218.100311 13.313482,208.667068 13.891811,197.154144 
	C14.097958,193.050369 15.493720,191.854477 19.373802,192.653046 
	C22.108770,193.215942 24.934752,193.336609 28.096661,193.698639 
	C28.823507,193.848969 29.173790,193.955383 29.868479,194.479828 
	C29.781851,195.754959 29.350815,196.612091 28.515392,197.394409 
	C24.118160,199.891953 22.516684,205.629822 24.288834,211.050201 
	C24.181473,217.566727 25.362272,218.167694 31.322811,214.870758 
	C32.280033,214.664551 32.918545,214.529022 33.930393,214.560150 
	C42.776615,217.237671 43.409279,216.855438 42.164364,209.977692 
z"/>
<path fill="#6E6E6E" opacity="1.000000" stroke="none" 
	d="
M83.211426,141.009094 
	C83.058113,141.471649 82.784874,141.650208 82.033501,141.934845 
	C77.687408,138.992981 77.528709,138.330536 80.656265,136.824585 
	C81.710068,138.159576 82.400787,139.442322 83.211426,141.009094 
z"/>
<path fill="#1F1F1F" opacity="1.000000" stroke="none" 
	d="
M92.177589,219.944351 
	C95.025993,217.698944 98.033295,215.625519 100.689323,213.171875 
	C106.014030,208.252914 111.146713,203.126099 116.992523,198.038391 
	C119.750656,198.661652 121.874947,199.331604 123.999237,200.001541 
	C124.367554,201.748886 125.250473,203.568771 125.016151,205.231186 
	C123.933075,212.915421 122.539322,220.555862 120.926773,228.835999 
	C118.759109,234.636444 116.921555,239.812912 114.685158,244.988190 
	C110.335350,243.661041 106.725700,243.826736 103.888062,247.366302 
	C102.207047,246.202927 100.526039,245.039536 98.139816,243.388077 
	C100.893822,241.852615 102.801277,240.789139 105.214066,239.271011 
	C105.807251,237.358002 105.895103,235.899628 105.982964,234.441269 
	C105.975403,233.861572 105.967842,233.281860 106.291672,232.296204 
	C109.201416,227.527924 106.297073,226.224915 102.890976,225.201874 
	C102.585922,225.009262 102.280869,224.816666 101.527420,224.251434 
	C98.111885,222.567322 95.144737,221.255829 92.177589,219.944351 
z"/>
<path fill="#484848" opacity="1.000000" stroke="none" 
	d="
M104.000412,247.670273 
	C106.725700,243.826736 110.335350,243.661041 114.951126,245.007233 
	C115.793190,245.013367 115.970436,244.999268 116.147682,244.985168 
	C115.125107,247.567841 114.102531,250.150528 112.735100,253.604156 
	C109.475876,251.476074 106.794319,249.725159 104.000412,247.670273 
z"/>
<path fill="#9F9F9F" opacity="1.000000" stroke="none" 
	d="
M116.454666,244.846649 
	C115.970436,244.999268 115.793190,245.013367 115.349976,245.008423 
	C116.921555,239.812912 118.759109,234.636444 120.889420,229.237579 
	C123.828377,235.406662 119.491608,239.831085 116.454666,244.846649 
z"/>
<path fill="#C7C7C7" opacity="1.000000" stroke="none" 
	d="
M124.023315,199.620819 
	C121.874947,199.331604 119.750656,198.661652 117.276550,197.844543 
	C117.603271,196.386810 118.279800,195.076263 119.019501,193.454697 
	C120.219849,193.430511 121.938934,193.363281 122.373505,194.077576 
	C123.288353,195.581284 123.529663,197.494766 124.023315,199.620819 
z"/>
<path fill="#E8E8E8" opacity="1.000000" stroke="none" 
	d="
M105.792778,234.672653 
	C105.895103,235.899628 105.807251,237.358002 105.368881,238.932617 
	C105.003166,238.255798 104.987976,237.462708 104.967255,236.273026 
	C105.175362,235.552307 105.388977,235.228165 105.792778,234.672653 
z"/>
<path fill="#B1B1B1" opacity="1.000000" stroke="none" 
	d="
M195.579254,246.229202 
	C195.173004,244.152634 195.118942,241.998627 195.064865,239.844604 
	C197.325348,240.221939 199.677216,240.321976 201.828339,241.031082 
	C207.243439,242.816132 212.567932,244.876007 218.025909,247.150894 
	C217.581375,248.299911 217.039673,249.123734 216.774124,249.527573 
	C211.903397,247.258972 207.273407,244.586884 202.291489,243.072861 
	C200.636230,242.569839 198.077255,245.040558 195.579254,246.229202 
z"/>
<path fill="#B1B1B1" opacity="1.000000" stroke="none" 
	d="
M157.914001,76.303864 
	C157.962143,75.755783 158.150833,75.502274 158.557465,75.136497 
	C159.117416,75.826721 159.479141,76.643890 159.785309,77.812820 
	C159.164780,77.637642 158.599808,77.110703 157.914001,76.303864 
z"/>
<path fill="#9F9F9F" opacity="1.000000" stroke="none" 
	d="
M102.914261,225.525940 
	C106.297073,226.224915 109.201416,227.527924 106.303711,232.006226 
	C105.335106,231.654343 104.685844,231.186523 103.964523,230.409821 
	C103.574165,228.683975 103.255859,227.266998 102.914261,225.525940 
z"/>
<path fill="#272727" opacity="1.000000" stroke="none" 
	d="
M62.054852,224.709213 
	C64.458923,225.436676 66.862984,226.164139 69.881355,227.150330 
	C72.024086,227.887131 73.552505,228.365219 75.080933,228.843323 
	C75.080933,228.843323 75.095444,228.935379 75.125763,229.334625 
	C75.238655,230.840363 75.321243,231.946854 75.403824,233.053345 
	C70.417824,238.998169 65.431824,244.943008 60.824280,250.436600 
	C58.147533,249.846329 55.894165,249.349411 53.317421,248.962158 
	C52.994041,249.071808 52.862423,248.760864 52.595497,248.465729 
	C51.551632,247.793701 50.774700,247.416824 49.997772,247.039932 
	C47.772884,244.813492 45.548000,242.587051 43.064064,239.904419 
	C42.526642,238.968918 42.248268,238.489624 41.969902,238.010315 
	C42.471718,236.181808 42.973534,234.353302 43.721958,231.964386 
	C44.252789,230.599655 44.537010,229.795334 44.821228,228.991013 
	C45.100067,228.611771 45.378906,228.232529 46.087753,227.494720 
	C48.345360,224.426514 50.172958,221.716888 52.000553,219.007263 
	C53.464287,219.556076 54.928024,220.104904 56.646534,221.221130 
	C57.050259,225.530457 59.993916,224.341049 62.054852,224.709213 
z"/>
<path fill="#9F9F9F" opacity="1.000000" stroke="none" 
	d="
M91.854630,219.904694 
	C95.144737,221.255829 98.111885,222.567322 101.273605,224.155579 
	C97.080460,225.065994 92.692749,225.699615 88.122833,225.949402 
	C89.137650,223.665390 90.334656,221.765213 91.854630,219.904694 
z"/>
<path fill="#D0D0D0" opacity="1.000000" stroke="none" 
	d="
M75.732040,232.951584 
	C75.321243,231.946854 75.238655,230.840363 75.168465,229.315979 
	C75.586014,228.888336 75.991180,228.878571 76.701172,228.888367 
	C76.690750,230.221909 76.375504,231.535858 75.732040,232.951584 
z"/>
<path fill="#9F9F9F" opacity="1.000000" stroke="none" 
	d="
M51.929497,218.675842 
	C50.172958,221.716888 48.345360,224.426514 46.214249,227.160049 
	C45.555882,224.690399 45.201023,222.196838 44.769615,219.365707 
	C45.126102,217.310715 45.559143,215.593307 46.014549,213.499878 
	C47.977421,214.864044 49.917931,216.604218 51.929497,218.675842 
z"/>
<path fill="#E8E8E8" opacity="1.000000" stroke="none" 
	d="
M50.069237,247.391754 
	C50.774700,247.416824 51.551632,247.793701 52.428833,248.492645 
	C51.732964,248.457642 50.936832,248.100601 50.069237,247.391754 
z"/>
<path fill="#E8E8E8" opacity="1.000000" stroke="none" 
	d="
M41.753906,238.165649 
	C42.248268,238.489624 42.526642,238.968918 42.766788,239.731628 
	C42.331680,239.450348 41.934795,238.885681 41.753906,238.165649 
z"/>
<path fill="#E8E8E8" opacity="1.000000" stroke="none" 
	d="
M44.464005,229.095764 
	C44.537010,229.795334 44.252789,230.599655 43.717869,231.616211 
	C43.680378,230.952469 43.893578,230.076492 44.464005,229.095764 
z"/>
<path fill="#2D2D2D" opacity="1.000000" stroke="none" 
	d="
M179.894302,210.568207 
	C179.605484,208.302444 179.316681,206.036697 179.284821,203.174896 
	C179.557846,201.687637 179.573914,200.796387 179.589966,199.905151 
	C181.766006,199.561539 183.942032,199.217926 186.758484,199.019852 
	C188.263824,199.777420 189.128754,200.389450 189.993683,201.001480 
	C189.149704,203.532455 188.305725,206.063416 186.856644,208.874695 
	C184.132462,209.626053 182.013382,210.097122 179.894302,210.568207 
z"/>
<path fill="#C7C7C7" opacity="1.000000" stroke="none" 
	d="
M190.308243,200.888977 
	C189.128754,200.389450 188.263824,199.777420 187.171997,198.932312 
	C188.228363,198.327179 189.511627,197.955124 190.794907,197.583084 
	C190.737534,198.647552 190.680176,199.712021 190.308243,200.888977 
z"/>
<path fill="#C7C7C7" opacity="1.000000" stroke="none" 
	d="
M180.032043,210.888504 
	C182.013382,210.097122 184.132462,209.626053 186.652008,209.168716 
	C185.777908,213.321213 183.029175,212.452972 180.032043,210.888504 
z"/>
<path fill="#C7C7C7" opacity="1.000000" stroke="none" 
	d="
M179.287964,199.971527 
	C179.573914,200.796387 179.557846,201.687637 179.281403,202.791687 
	C179.009338,202.015625 178.997665,201.026779 179.287964,199.971527 
z"/>
<path fill="#0E0E0E" opacity="1.000000" stroke="none" 
	d="
M83.853745,146.147827 
	C84.365723,146.771286 84.620392,147.580811 84.845901,148.725250 
	C84.409981,148.151398 84.003212,147.242645 83.853745,146.147827 
z"/>
<path fill="#9F9F9F" opacity="1.000000" stroke="none" 
	d="
M41.969803,209.665527 
	C43.409279,216.855438 42.776615,217.237671 34.114182,214.281662 
	C34.743992,211.741760 36.807430,209.047302 36.142551,207.668030 
	C34.358788,203.967697 31.407417,200.830231 28.919775,197.469208 
	C29.350815,196.612091 29.781851,195.754959 30.388943,194.654953 
	C33.179745,196.842911 36.127056,199.013275 38.301369,201.789124 
	C39.965706,203.913895 40.653233,206.803787 41.969803,209.665527 
z"/>
<path fill="#E0E0E0" opacity="1.000000" stroke="none" 
	d="
M34.744553,172.662888 
	C34.683117,175.963394 35.870598,180.166611 34.282547,182.363678 
	C31.550169,186.143890 29.119822,182.432739 27.248337,179.519821 
	C29.021662,176.966614 30.669863,175.037338 32.630489,173.121521 
	C33.543457,172.977600 34.144005,172.820236 34.744553,172.662888 
z"/>
<path fill="#9F9F9F" opacity="1.000000" stroke="none" 
	d="
M34.748478,172.330811 
	C34.144005,172.820236 33.543457,172.977600 32.333317,172.887375 
	C27.818260,169.041489 25.922791,171.995758 24.041517,174.996292 
	C21.387711,171.115875 23.477676,168.352982 26.567823,166.418747 
	C29.308939,164.702972 32.953705,167.394379 34.748478,172.330811 
z"/>
<path fill="#484848" opacity="1.000000" stroke="none" 
	d="
M24.078247,175.369904 
	C25.922791,171.995758 27.818260,169.041489 32.020893,172.873932 
	C30.669863,175.037338 29.021662,176.966614 27.187174,179.199768 
	C26.038916,178.250275 25.076944,176.996902 24.078247,175.369904 
z"/>
<path fill="#D0D0D0" opacity="1.000000" stroke="none" 
	d="
M61.988689,224.391891 
	C59.993916,224.341049 57.050259,225.530457 56.937443,221.397827 
	C58.623226,222.029572 60.272877,223.052063 61.988689,224.391891 
z"/>
<path fill="#D0D0D0" opacity="1.000000" stroke="none" 
	d="
M75.030876,228.518188 
	C73.552505,228.365219 72.024086,227.887131 70.258331,227.156723 
	C71.674278,227.333969 73.327553,227.763504 75.030876,228.518188 
z"/>
<path fill="#272727" opacity="1.000000" stroke="none" 
	d="
M28.515388,197.394409 
	C31.407417,200.830231 34.358788,203.967697 36.142551,207.668030 
	C36.807430,209.047302 34.743992,211.741760 33.740845,214.115005 
	C32.918545,214.529022 32.280033,214.664551 31.108559,214.623489 
	C28.515619,213.174988 26.455647,211.903061 24.395676,210.631134 
	C22.516684,205.629822 24.118160,199.891953 28.515388,197.394409 
z"/>
<path fill="#9F9F9F" opacity="1.000000" stroke="none" 
	d="
M24.288832,211.050201 
	C26.455647,211.903061 28.515619,213.174988 30.789845,214.694153 
	C25.362272,218.167694 24.181473,217.566727 24.288832,211.050201 
z"/>
</svg>